<svg width="151" height="40" viewBox="0 0 151 40" fill="none" xmlns="http://www.w3.org/2000/svg">
<path d="M23.7575 29.4629L4.24868 16.0934C2.27169 14.7386 2.94374 11.9177 5.40899 11.2544L26.1434 5.66346C26.5826 5.50601 27.0533 5.45489 27.5164 5.51437C27.9794 5.57384 28.4216 5.74219 28.8061 6.00543C29.1905 6.26867 29.5063 6.61922 29.7271 7.02798C29.9478 7.43673 30.0673 7.89191 30.0756 8.35574L28.8468 27.3152C28.7011 29.5656 25.7345 30.8177 23.7575 29.4629Z" fill="#E9327C"/>
<path d="M17.57 32.7635L6.07674 10.4334C5.81401 9.92256 5.6984 9.34954 5.74265 8.77756C5.7869 8.20558 5.98929 7.65685 6.3275 7.19189C6.66572 6.72693 7.12661 6.3638 7.65937 6.14254C8.19212 5.92128 8.77602 5.85049 9.3467 5.93799L30.6466 9.20394C31.1369 9.27914 31.6024 9.46891 32.0046 9.75764C32.4067 10.0464 32.7342 10.4258 32.96 10.8648C33.1858 11.3038 33.3036 11.7897 33.3034 12.2827C33.3033 12.7756 33.1855 13.2615 32.9596 13.7004L23.1475 32.7646C22.8841 33.274 22.4843 33.7014 21.9922 33.9997C21.5002 34.2981 20.9349 34.4558 20.3584 34.4557C19.782 34.4556 19.2167 34.2976 18.7248 33.9991C18.2328 33.7005 17.8333 33.273 17.57 32.7635Z" fill="#1DACE3"/>
<path d="M30.0234 9.10767L19.4055 7.47955L6.3692 10.9962L11.5726 21.1095L23.7575 29.4629C24.0263 29.6451 24.322 29.7847 24.634 29.8767L29.2622 20.8848L30.0234 9.10767Z" fill="#001A49"/>
<path d="M83.8054 11.7179C83.8054 11.3258 83.9224 10.9425 84.1416 10.6165C84.3609 10.2905 84.6726 10.0364 85.0372 9.88632C85.4018 9.73627 85.803 9.69701 86.1901 9.7735C86.5772 9.85 86.9328 10.0388 87.2118 10.3161C87.4909 10.5933 87.6809 10.9466 87.7579 11.3311C87.8349 11.7157 87.7954 12.1143 87.6444 12.4766C87.4933 12.8388 87.2376 13.1484 86.9095 13.3663C86.5813 13.5841 86.1955 13.7004 85.8008 13.7004C85.2732 13.695 84.7688 13.4844 84.3957 13.1138C84.0227 12.7432 83.8107 12.242 83.8054 11.7179ZM84.1381 14.6694H87.4646V25.6827H84.1381V14.6694Z" fill="#001A49"/>
<path d="M101.83 20.1761C101.868 20.904 101.762 21.6324 101.516 22.3193C101.27 23.0061 100.89 23.638 100.398 24.1785C99.9057 24.7189 99.3107 25.1573 98.6471 25.4686C97.9835 25.7797 97.2646 25.9576 96.5317 25.9917C95.9152 26.025 95.2989 25.9217 94.7275 25.6893C94.1561 25.4568 93.644 25.1011 93.228 24.6477V30.0885H89.9026V14.6694H93.228V15.7044C93.6441 15.2512 94.1563 14.8957 94.7277 14.6634C95.2991 14.4312 95.9153 14.328 96.5317 14.3615C97.2646 14.3955 97.9834 14.5732 98.647 14.8842C99.3106 15.1954 99.9056 15.6337 100.398 16.1741C100.89 16.7145 101.27 17.3462 101.516 18.0331C101.762 18.7199 101.868 19.4481 101.83 20.1761ZM98.5043 20.1761C98.4913 19.6604 98.3254 19.1601 98.0276 18.7376C97.7297 18.3151 97.313 17.9893 96.8297 17.801C96.3464 17.6126 95.8179 17.5701 95.3104 17.6787C94.8029 17.7873 94.3387 18.0421 93.9763 18.4114C93.6138 18.7807 93.3691 19.248 93.2726 19.7548C93.1761 20.2616 93.2324 20.7855 93.4341 21.2608C93.6358 21.736 93.9741 22.1416 94.4067 22.4268C94.8394 22.712 95.347 22.864 95.8662 22.864C96.2227 22.88 96.5785 22.8208 96.9104 22.6905C97.2423 22.5601 97.5427 22.3615 97.7918 22.1077C98.041 21.8538 98.2332 21.5505 98.3561 21.2176C98.4789 20.8847 98.5294 20.5297 98.5043 20.1761Z" fill="#001A49"/>
<path d="M112.094 22.3769C112.094 24.9103 109.877 25.9896 107.483 25.9896C106.515 26.0766 105.544 25.8731 104.694 25.4057C103.844 24.9383 103.156 24.2283 102.716 23.3676L105.598 21.7384C105.715 22.1363 105.966 22.4821 106.309 22.718C106.652 22.954 107.067 23.0658 107.483 23.0348C108.281 23.0348 108.679 22.7917 108.679 22.352C108.679 21.1398 103.225 21.7794 103.225 17.9679C103.225 15.5673 105.264 14.3562 107.575 14.3562C108.442 14.3292 109.3 14.5335 110.06 14.9479C110.821 15.3623 111.455 15.9717 111.898 16.7125L109.06 18.2326C108.936 17.9435 108.729 17.697 108.465 17.5242C108.201 17.3512 107.891 17.2595 107.575 17.2602C106.999 17.2602 106.644 17.4763 106.644 17.8771C106.641 19.1411 112.094 18.3039 112.094 22.3769Z" fill="#001A49"/>
<path d="M124.249 14.6695V25.6828H120.923V24.6456C120.539 25.1025 120.051 25.4625 119.5 25.6962C118.95 25.9297 118.35 26.0303 117.752 25.9896C115.513 25.9896 113.607 24.4036 113.607 21.4294V14.6695H116.932V20.9475C116.904 21.21 116.935 21.4755 117.02 21.7253C117.106 21.9751 117.246 22.2033 117.429 22.3941C117.613 22.5849 117.836 22.7336 118.083 22.8298C118.331 22.9262 118.596 22.9677 118.862 22.9516C120.081 22.9516 120.928 22.2472 120.928 20.6828V14.6695H124.249Z" fill="#001A49"/>
<path d="M143.309 18.9196V25.6827H139.984V19.207C139.984 18.1061 139.451 17.4006 138.388 17.4006C137.278 17.4006 136.659 18.172 136.659 19.4717V25.6827H133.332V19.207C133.332 18.1061 132.8 17.4006 131.736 17.4006C130.628 17.4006 130.007 18.172 130.007 19.4717V25.6827H126.681V14.6695H130.012V15.6785C130.357 15.2292 130.809 14.8729 131.328 14.642C131.847 14.4112 132.416 14.3133 132.983 14.3572C133.552 14.3296 134.119 14.4489 134.628 14.7036C135.137 14.9582 135.571 15.3395 135.888 15.8103C136.256 15.3178 136.745 14.926 137.307 14.6719C137.869 14.4178 138.488 14.3095 139.103 14.3572C141.648 14.3616 143.309 16.1668 143.309 18.9196Z" fill="#001A49"/>
<path d="M146.127 14.6013C147.491 14.6013 148.596 13.5034 148.596 12.1489C148.596 10.7945 147.491 9.69647 146.127 9.69647C144.763 9.69647 143.659 10.7945 143.659 12.1489C143.659 13.5034 144.763 14.6013 146.127 14.6013Z" fill="#001A49"/>
<path d="M38.4023 9.60358H41.7288V25.6828H38.4023V9.60358ZM43.6123 20.1761C43.6087 19.0214 43.9499 17.8917 44.5929 16.9299C45.2359 15.9681 46.1518 15.2174 47.2244 14.7731C48.2972 14.3287 49.4784 14.2106 50.6188 14.4336C51.7591 14.6566 52.8072 15.2107 53.6303 16.026C54.4534 16.8411 55.0145 17.8806 55.2425 19.0128C55.4706 20.145 55.3554 21.3189 54.9115 22.386C54.4676 23.4531 53.715 24.3654 52.7489 25.0072C51.7828 25.6491 50.6467 25.9917 49.4845 25.9917C48.7126 25.9999 47.9468 25.8552 47.2318 25.5661C46.5169 25.277 45.8671 24.8492 45.3204 24.3078C44.7737 23.7663 44.3411 23.1221 44.0478 22.4127C43.7545 21.7033 43.6065 20.943 43.6123 20.1761ZM52.0378 20.1761C52.0248 19.678 51.8643 19.1948 51.5762 18.787C51.2882 18.3791 50.8856 18.0646 50.4186 17.8829C49.9515 17.7013 49.4411 17.6604 48.9509 17.7655C48.4606 17.8705 48.0125 18.1169 47.6625 18.4737C47.3124 18.8305 47.0761 19.2819 46.9829 19.7714C46.8898 20.261 46.944 20.767 47.1389 21.2261C47.3336 21.6852 47.6604 22.077 48.0782 22.3526C48.496 22.6282 48.9863 22.7753 49.4877 22.7755C49.8312 22.7852 50.1729 22.7241 50.4913 22.596C50.8099 22.4681 51.0981 22.2759 51.3381 22.0317C51.5781 21.7875 51.7646 21.4965 51.8858 21.1772C52.0069 20.8577 52.0602 20.5169 52.0422 20.1761H52.0378ZM68.6203 14.6662V25.1296C68.6203 28.8299 65.7158 30.3932 62.7677 30.3932C61.73 30.471 60.6908 30.2634 59.7638 29.7932C58.837 29.3232 58.0583 28.6085 57.5131 27.7279L60.3503 26.0976C60.5793 26.5572 60.9441 26.9364 61.396 27.1846C61.8478 27.4326 62.365 27.5378 62.8786 27.4859C63.2065 27.5303 63.5401 27.5011 63.855 27.4003C64.1699 27.2995 64.458 27.1299 64.6981 26.9037C64.9381 26.6776 65.124 26.4008 65.242 26.0936C65.3599 25.7866 65.407 25.4571 65.3797 25.1296V24.1162C64.9902 24.5894 64.4944 24.9654 63.9323 25.214C63.3701 25.4626 62.7571 25.5769 62.1424 25.5477C60.6792 25.5024 59.2911 24.8932 58.2722 23.8489C57.2532 22.8047 56.6834 21.4074 56.6834 19.953C56.6834 18.4985 57.2532 17.1013 58.2722 16.057C59.2911 15.0127 60.6792 14.4035 62.1424 14.3583C62.7571 14.3291 63.3701 14.4433 63.9323 14.692C64.4944 14.9405 64.9902 15.3165 65.3797 15.7898V14.6662H68.6203ZM65.3841 19.9525C65.406 19.4205 65.2673 18.8943 64.9857 18.4413C64.7042 17.9883 64.2927 17.6293 63.8041 17.4105C63.3156 17.1917 62.7724 17.1231 62.2443 17.2135C61.7162 17.304 61.2274 17.5492 60.8407 17.9178C60.454 18.2864 60.1872 18.7615 60.0745 19.2819C59.9617 19.8024 60.0083 20.3444 60.2081 20.8385C60.4079 21.3324 60.752 21.7557 61.1959 22.0539C61.6398 22.3521 62.1634 22.5116 62.6992 22.5119C63.0486 22.5362 63.3993 22.4877 63.7287 22.3694C64.058 22.2511 64.3588 22.0656 64.6118 21.8248C64.8646 21.5841 65.064 21.2933 65.197 20.9715C65.33 20.6495 65.3938 20.3035 65.3841 19.9557V19.9525ZM70.5038 20.1686C70.5002 19.0139 70.8414 17.8841 71.4845 16.9224C72.1275 15.9605 73.0433 15.2099 74.116 14.7655C75.1887 14.3211 76.3699 14.203 77.5103 14.426C78.6506 14.6491 79.6986 15.2032 80.5218 16.0184C81.3449 16.8336 81.906 17.873 82.1341 19.0052C82.3621 20.1374 82.2469 21.3114 81.803 22.3785C81.3591 23.4455 80.6065 24.3578 79.6404 24.9996C78.6743 25.6415 77.5383 25.9842 76.376 25.9842C75.6048 25.9923 74.8397 25.8478 74.1252 25.5592C73.4108 25.2706 72.7612 24.8434 72.2147 24.3028C71.668 23.7622 71.2353 23.1189 70.9416 22.4103C70.6478 21.7018 70.499 20.9423 70.5038 20.1761V20.1686ZM78.9294 20.1686C78.9165 19.6702 78.756 19.1866 78.4681 18.7783C78.18 18.3702 77.7771 18.0555 77.3099 17.8735C76.8426 17.6916 76.3319 17.6507 75.8413 17.7558C75.3508 17.8608 74.9023 18.1073 74.5521 18.4643C74.2019 18.8213 73.9654 19.273 73.8723 19.7629C73.7791 20.2527 73.8335 20.7591 74.0284 21.2184C74.2235 21.6777 74.5505 22.0697 74.9686 22.3454C75.3869 22.621 75.8775 22.7679 76.3793 22.7679C76.7217 22.7769 77.0622 22.7156 77.3796 22.5878C77.697 22.46 77.9845 22.2684 78.2239 22.0251C78.4633 21.7818 78.6496 21.4919 78.7709 21.1737C78.8924 20.8556 78.9463 20.5159 78.9294 20.1761V20.1686Z" fill="#001A49"/>
</svg>
