<svg width="41" height="40" viewBox="0 0 41 40" fill="none" xmlns="http://www.w3.org/2000/svg">
<path d="M39.9 16.5999L21.9 0.599902C21.1 -9.76622e-05 20.1 -9.76622e-05 19.3 0.599902L1.29999 16.5999C0.499993 17.3999 0.299993 18.5999 1.09999 19.3999C1.89999 20.1999 3.09999 20.3999 3.89999 19.5999L4.49999 18.7999L4.49999 37.9999C4.49999 39.1999 5.29999 39.9999 6.49999 39.9999H34.5C35.7 39.9999 36.5 39.1999 36.5 37.9999V18.7999L37.1 19.3999C37.9 20.1999 39.1 19.9999 39.9 19.1999C40.7 18.5999 40.7 17.1999 39.9 16.5999ZM20.5 17.9999C23.5 17.9999 25.9 20.3999 25.9 23.3999C25.9 26.3999 23.5 28.7999 20.5 28.7999C17.5 28.7999 15.1 26.3999 15.1 23.3999C15.1 20.3999 17.5 17.9999 20.5 17.9999ZM10.5 35.9999C10.5 35.7999 10.5 35.7999 10.7 35.5999C15.1 30.1999 23.1 29.1999 28.5 33.5999C29.3 34.1999 29.9 34.7999 30.5 35.5999C30.5 35.5999 30.5 35.7999 30.7 35.9999H10.5Z" fill="#4299E1"/>
</svg>
