<svg width="41" height="40" viewBox="0 0 41 40" fill="none" xmlns="http://www.w3.org/2000/svg">
<path d="M34.5 0L6.5 0C3.1 0 0.5 2.6 0.5 6L0.5 34C0.5 37.4 3.1 40 6.5 40H34.5C37.9 40 40.5 37.4 40.5 34V6C40.5 2.6 37.9 0 34.5 0ZM12.5 30C12.5 31.2 11.7 32 10.5 32C9.3 32 8.5 31.2 8.5 30V22C8.5 20.8 9.3 20 10.5 20C11.7 20 12.5 20.8 12.5 22V30ZM22.5 30C22.5 31.2 21.7 32 20.5 32C19.3 32 18.5 31.2 18.5 30V10C18.5 8.8 19.3 8 20.5 8C21.7 8 22.5 8.8 22.5 10V30ZM32.5 30C32.5 31.2 31.7 32 30.5 32C29.3 32 28.5 31.2 28.5 30V18C28.5 16.8 29.3 16 30.5 16C31.7 16 32.5 16.8 32.5 18V30Z" fill="#4299E1"/>
</svg>
