<svg width="43" height="40" viewBox="0 0 43 40" fill="none" xmlns="http://www.w3.org/2000/svg">
<path d="M42.1 36.8C39.7 34 38.5 30.6 38.5 27V12C38.5 5.4 34.1 0 28.5 0L10.5 0C4.9 0 0.5 5.4 0.5 12C0.5 18.6 4.9 24 10.5 24H16.5V27C16.5 31.6 18.1 36 20.9 39.4C21.3 39.8 21.9 40 22.5 40H40.5C41.7 40 42.5 39.2 42.5 38C42.5 37.6 42.3 37 42.1 36.8ZM10.5 14.4C9.3 14.4 8.3 13.2 8.5 12C8.3 10.8 9.3 9.6 10.5 9.6C11.7 9.8 12.7 10.8 12.5 12C12.7 13.2 11.7 14.4 10.5 14.4ZM23.5 36C21.5 33.4 20.5 30.2 20.5 26.8V12.8V12.6C20.5 12.4 20.5 12 20.5 11.8C20.5 9 19.7 6.2 17.9 3.8L28.5 3.8C31.9 3.8 34.5 7.4 34.5 11.8V26.8C34.5 30 35.3 33.2 36.7 36H23.5Z" fill="#4299E1"/>
</svg>
